<svg xmlns="http://www.w3.org/2000/svg" viewBox="0 0 1017.66 165.79" width="1018" height="166"><rect x="0.00" y="0.00" width="129.79999999999998" height="129.79999999999998" rx="27.26" fill="#0E1116"/><polyline points="38.29,43.09 62.95,62.56 38.29,82.03" fill="none" stroke="#FFFFFF" stroke-width="11.94" stroke-linecap="round" stroke-linejoin="round"/><rect x="68.14" y="76.06" width="26.61" height="9.35" rx="4.67" fill="#2C46E0"/><g transform="translate(173.80,119.90) scale(0.15714,-0.15714)"><path d="M333.0 -14Q205.0 -14 130.0 58.5Q55.0 131 55.0 268V432Q55.0 569 130.0 641.5Q205.0 714 333.0 714Q459.0 714 527.5 644.0Q596.0 574 596.0 453V447H489.0V456Q489.0 527 450.5 572.0Q412.0 617 333.0 617Q253.0 617 208.0 568.5Q163.0 520 163.0 434V266Q163.0 181 208.0 132.0Q253.0 83 333.0 83Q412.0 83 450.5 128.5Q489.0 174 489.0 244V261H596.0V247Q596.0 126 527.5 56.0Q459.0 -14 333.0 -14ZM950.0 -14Q876.0 -14 818.5 16.5Q761.0 47 728.0 104.0Q695.0 161 695.0 239V254Q695.0 332 728.0 388.5Q761.0 445 818.5 476.0Q876.0 507 950.0 507Q1024.0 507 1082.0 476.0Q1140.0 445 1173.0 388.5Q1206.0 332 1206.0 254V239Q1206.0 161 1173.0 104.0Q1140.0 47 1082.0 16.5Q1024.0 -14 950.0 -14ZM950.0 78Q1018.0 78 1060.5 121.5Q1103.0 165 1103.0 242V251Q1103.0 328 1061.0 371.5Q1019.0 415 950.0 415Q883.0 415 840.5 371.5Q798.0 328 798.0 251V242Q798.0 165 840.5 121.5Q883.0 78 950.0 78ZM1538.0 -14Q1477.0 -14 1425.0 16.0Q1373.0 46 1341.5 102.5Q1310.0 159 1310.0 239V254Q1310.0 333 1341.0 390.0Q1372.0 447 1424.0 477.0Q1476.0 507 1538.0 507Q1586.0 507 1618.5 495.0Q1651.0 483 1672.0 464.5Q1693.0 446 1704.0 426H1720.0V700H1823.0V0H1722.0V70H1706.0Q1687.0 38 1648.5 12.0Q1610.0 -14 1538.0 -14ZM1567.0 76Q1634.0 76 1677.5 119.0Q1721.0 162 1721.0 242V251Q1721.0 330 1678.0 373.0Q1635.0 416 1567.0 416Q1501.0 416 1457.5 373.0Q1414.0 330 1414.0 251V242Q1414.0 162 1457.5 119.0Q1501.0 76 1567.0 76ZM2201.0 -14Q2126.0 -14 2070.0 17.5Q2014.0 49 1982.5 106.5Q1951.0 164 1951.0 240V252Q1951.0 329 1982.0 386.5Q2013.0 444 2068.5 475.5Q2124.0 507 2197.0 507Q2268.0 507 2321.5 475.5Q2375.0 444 2405.0 388.0Q2435.0 332 2435.0 257V218H2056.0Q2058.0 153 2099.5 114.5Q2141.0 76 2203.0 76Q2261.0 76 2290.5 102.0Q2320.0 128 2336.0 162L2421.0 118Q2407.0 90 2380.5 59.0Q2354.0 28 2311.0 7.0Q2268.0 -14 2201.0 -14ZM2057.0 297H2330.0Q2326.0 353 2290.0 384.5Q2254.0 416 2196.0 416Q2138.0 416 2101.5 384.5Q2065.0 353 2057.0 297ZM2761.0 -14Q2667.0 -14 2605.0 28.0Q2543.0 70 2529.0 155L2625.0 178Q2633.0 137 2652.0 113.0Q2671.0 89 2699.5 79.0Q2728.0 69 2761.0 69Q2810.0 69 2836.5 88.0Q2863.0 107 2863.0 137Q2863.0 167 2838.0 181.0Q2813.0 195 2764.0 204L2730.0 210Q2680.0 219 2639.0 236.0Q2598.0 253 2574.0 283.0Q2550.0 313 2550.0 360Q2550.0 430 2602.0 468.5Q2654.0 507 2740.0 507Q2823.0 507 2876.5 469.5Q2930.0 432 2946.0 368L2850.0 341Q2841.0 386 2812.0 404.5Q2783.0 423 2740.0 423Q2698.0 423 2674.0 407.5Q2650.0 392 2650.0 364Q2650.0 334 2673.5 320.0Q2697.0 306 2737.0 299L2772.0 293Q2825.0 284 2869.0 268.0Q2913.0 252 2938.5 222.0Q2964.0 192 2964.0 142Q2964.0 68 2909.0 27.0Q2854.0 -14 2761.0 -14ZM3084.0 0V493H3187.0V0ZM3136.0 560Q3106.0 560 3085.5 579.5Q3065.0 599 3065.0 630Q3065.0 661 3085.5 680.5Q3106.0 700 3136.0 700Q3167.0 700 3187.0 680.5Q3207.0 661 3207.0 630Q3207.0 599 3187.0 579.5Q3167.0 560 3136.0 560ZM3525.0 0Q3480.0 0 3453.5 27.0Q3427.0 54 3427.0 99V406H3291.0V493H3427.0V656H3530.0V493H3677.0V406H3530.0V117Q3530.0 87 3558.0 87H3661.0V0ZM4024.0 -14Q3949.0 -14 3893.0 17.5Q3837.0 49 3805.5 106.5Q3774.0 164 3774.0 240V252Q3774.0 329 3805.0 386.5Q3836.0 444 3891.5 475.5Q3947.0 507 4020.0 507Q4091.0 507 4144.5 475.5Q4198.0 444 4228.0 388.0Q4258.0 332 4258.0 257V218H3879.0Q3881.0 153 3922.5 114.5Q3964.0 76 4026.0 76Q4084.0 76 4113.5 102.0Q4143.0 128 4159.0 162L4244.0 118Q4230.0 90 4203.5 59.0Q4177.0 28 4134.0 7.0Q4091.0 -14 4024.0 -14ZM3880.0 297H4153.0Q4149.0 353 4113.0 384.5Q4077.0 416 4019.0 416Q3961.0 416 3924.5 384.5Q3888.0 353 3880.0 297ZM4584.0 -14Q4490.0 -14 4428.0 28.0Q4366.0 70 4352.0 155L4448.0 178Q4456.0 137 4475.0 113.0Q4494.0 89 4522.5 79.0Q4551.0 69 4584.0 69Q4633.0 69 4659.5 88.0Q4686.0 107 4686.0 137Q4686.0 167 4661.0 181.0Q4636.0 195 4587.0 204L4553.0 210Q4503.0 219 4462.0 236.0Q4421.0 253 4397.0 283.0Q4373.0 313 4373.0 360Q4373.0 430 4425.0 468.5Q4477.0 507 4563.0 507Q4646.0 507 4699.5 469.5Q4753.0 432 4769.0 368L4673.0 341Q4664.0 386 4635.0 404.5Q4606.0 423 4563.0 423Q4521.0 423 4497.0 407.5Q4473.0 392 4473.0 364Q4473.0 334 4496.5 320.0Q4520.0 306 4560.0 299L4595.0 293Q4648.0 284 4692.0 268.0Q4736.0 252 4761.5 222.0Q4787.0 192 4787.0 142Q4787.0 68 4732.0 27.0Q4677.0 -14 4584.0 -14Z" fill="#0E1116"/></g><rect x="951.66" y="105.05" width="66.00" height="14.85" rx="7.43" fill="#2C46E0"/></svg>